# xmcd
#
# Track frame offsets:
#	150
#	23854
#	33086
#	44876
#	60514
#	76335
#	93509
#	103521
#	115779
#	133321
#	151778
#	169795
#
# Disc length: 2481 seconds
# Revision: 0
# Processed by: cddbd v1.5.2PL0 Copyright (c) Steve Scherf et al.
# Submitted via: dBpowerAMP V12.0
#
DISCID=9409af0c
DTITLE=John Trones and Johanna Jahn - Jolly Holiday
DYEAR=1900
DGENRE=Chrismas
TTITLE0=Christmas Waltz - Merry Christmas Darling
TTITLE1=A Holly Jolly Christmas
TTITLE2=Count Your Blessings
TTITLE3=Santa Baby
TTITLE4=Silver Bells
TTITLE5=Baby It's Cold Outside
TTITLE6=I'm Gonna Lasso Santa
TTITLE7=Cool Yule
TTITLE8=That's What I Want For Christmas
TTITLE9=The Gift
TTITLE10=Angels We Have Heard On High
TTITLE11=Simple Things
EXTD=
EXTT0=
EXTT1=
EXTT2=
EXTT3=
EXTT4=
EXTT5=
EXTT6=
EXTT7=
EXTT8=
EXTT9=
EXTT10=
EXTT11=
PLAYORDER=
